<svg id="Layer_1" data-name="Layer 1" xmlns="http://www.w3.org/2000/svg" viewBox="0 0 61.74 84.71">
    <defs>
        <style>
            .cls-1 {
            fill: #fff;
            font-size: 18px;
            font-family: KhmerOSDangrek, Khmer OS Dangrek;
            opacity: 0.7;
            }
        </style>
    </defs>
    <title>Khmer</title>
    <path class="cls-1" d="M0,14.36a2.54,2.54,0,0,1,2.87-2.87H4.31V2.87Q4.31,0,7.9,0t3.59,2.87V14.36q0,2.87-4.31,2.87H2.87A2.54,2.54,0,0,1,0,14.36ZM11.49,24.41V58.87a2.54,2.54,0,0,1,2.87,2.87,2.54,2.54,0,0,1-2.87,2.87H8.61q-4.31,0-4.31-2.87V24.41q0-2.87,3.59-2.87T11.49,24.41Zm27.28,5.74a2.54,2.54,0,0,0-2.87-2.87H30.15a2.54,2.54,0,0,0-2.87,2.87V35.9q0,2.87-3.59,2.87T20.1,35.9V30.15q0-8.61,10.05-8.61H35.9q10.05,0,10.05,8.61v4.31q0,7.24-9.33,10.48l-2.33.8-2.33.8q-4.68,1.64-4.68,5.14V56a2.54,2.54,0,0,0,2.87,2.87H35.9A2.54,2.54,0,0,0,38.77,56V50.25q0-2.87,3.59-2.87t3.59,2.87V56q0,8.61-10.05,8.61H30.15Q20.1,64.61,20.1,56V51.69q0-7.24,9.33-10.48l2.33-.8,2.35-.83q4.65-1.61,4.65-5.11Zm0,44.51V70.35q0-2.87,3.59-2.87t3.59,2.87v4.54a5.82,5.82,0,0,0-2.15-.46,3.6,3.6,0,0,0-1.38.26,6,6,0,0,1,2.07.69,6.27,6.27,0,0,1,2.13,1.84,4.91,4.91,0,0,1,.78,2.9q0,4.59-4.11,4.59T39,80.38H21.48a2.5,2.5,0,0,1-2.81-2.84,2.54,2.54,0,0,1,2.87-2.87ZM58.15,21.54q3.59,0,3.59,2.87V61.74q0,2.87-4.31,2.87H53.13a2.54,2.54,0,0,1-2.87-2.87,2.54,2.54,0,0,1,2.87-2.87,1.27,1.27,0,0,0,1.44-1.44v-33Q54.56,21.54,58.15,21.54Z" style="fill:#fff"/>
</svg>